# xmcd
#
# Track frame offsets:
#	150
#	16649
#	30154
#	45438
#	57783
#	71575
#	84490
#	97662
#	110609
#	122826
#	134268
#	151147
#
# Disc length: 2190 seconds
#
# Revision: 4
# Processed by: cddbd v1.5.1PL0 Copyright (c) Steve Scherf et al.
# Submitted via: MusicWizard 7.2.0
#
DISCID=82088c0c,9a088c0c
DTITLE=Bay City Rollers - Bay City Rollers
DYEAR=2000
DGENRE=Rock/Pop
TTITLE0=I Only Wanna Be With You
TTITLE1=It´s A Game
TTITLE2=Give A Little Love
TTITLE3=You Made Me Believe In Magic
TTITLE4=Shang-A-Lang
TTITLE5=Bye Bye Baby
TTITLE6=Saturday Night
TTITLE7=Don`t Stop The Music
TTITLE8=Keep On Dancing
TTITLE9=Remember (Sha La La La)
TTITLE10=Yesterdays Heroe
TTITLE11=Rock`n Roll Loveletter
EXTD=
EXTT0=
EXTT1=
EXTT2=
EXTT3=
EXTT4=
EXTT5=
EXTT6=
EXTT7=
EXTT8=
EXTT9=
EXTT10=
EXTT11=
PLAYORDER=
